# xmcd
#
# Track frame offsets: 
#        150
#        10836
#        31836
#        54440
#        79937
#        96326
#        124037
#        143439
#        151897
#        167292
#        184786
#        200530
#        215194
#        230677
#
# Disc length: 3228 seconds
#
# Revision: 0
# Processed by: cddbd v1.5.2PL0 Copyright (c) Steve Scherf et al.
# Submitted via: ExactAudioCopyFreeDBPlugin 1.0
#
DISCID=b30c9a0e
DTITLE=B.B. King - Originals
DYEAR=2007
DGENRE=Blues
TTITLE0=Recession Blues
TTITLE1=Thrill Is Gone (Whit Dave Brubeck and Pat Metheny)
TTITLE2=Everiday I Have The Blues
TTITLE3=Guess Who? (Whit Dave Brubeck and Pat Metheny)
TTITLE4=My Guitar Sings The Blues
TTITLE5=Paying The Cost To The Boss (Whit Dave Brubeck and Pat Metheny)
TTITLE6=Sweet Sixteen
TTITLE7=A New Way Of Driving
TTITLE8=Letter
TTITLE9=That Evil Child
TTITLE10=Lonely Nights
TTITLE11=B.B. Boogie
TTITLE12=Walkin' And Cryin'
TTITLE13=Paying The Cost To The Boss (Different version)
EXTD=
EXTT0=
EXTT1=
EXTT2=
EXTT3=
EXTT4=
EXTT5=
EXTT6=
EXTT7=
EXTT8=
EXTT9=
EXTT10=
EXTT11=
EXTT12=
EXTT13=
PLAYORDER=
